if (_typeface_js && _typeface_js.loadFace) _typeface_js.loadFace({"glyphs":{"S":{"x_min":25,"x_max":740.6875,"ha":808,"o":"m 25 173 b 366 -13 108 48 238 -13 b 740 270 545 -13 723 86 b 412 597 750 502 583 565 b 243 706 326 615 244 626 l 243 708 b 393 805 247 776 315 805 b 556 712 456 805 515 776 l 725 825 b 393 998 643 948 520 998 b 34 715 216 998 45 901 b 345 402 31 498 191 426 b 534 284 447 388 538 369 b 179 291 526 147 268 150 l 25 173 "},"/":{"x_min":-45.828125,"x_max":559.71875,"ha":528,"o":"m -45 -8 l 138 -75 l 559 994 l 377 1058 l -45 -8 "},"K":{"x_min":61.109375,"x_max":863.890625,"ha":858,"o":"m 61 983 l 61 0 l 265 0 l 265 327 l 304 365 l 611 0 l 863 0 l 441 501 l 863 983 l 615 983 l 265 573 l 265 983 l 61 983 "},"7":{"x_min":-23.765625,"x_max":672.0625,"ha":685,"o":"m 402 788 l -19 0 l 201 0 l 672 870 l 615 984 l -23 984 l -23 788 l 402 788 "},"d":{"x_min":31.921875,"x_max":611.109375,"ha":701,"o":"m 416 982 l 416 700 b 31 481 259 772 29 680 l 31 232 b 330 -16 45 46 179 -16 b 611 38 420 -16 523 4 l 611 982 l 416 982 m 416 142 b 225 214 350 108 227 128 l 225 490 b 416 553 234 574 354 587 l 416 142 "},",":{"x_min":-8.328125,"x_max":315.28125,"ha":392,"o":"m -8 -169 l 187 -169 l 315 154 l 98 154 l -8 -169 "},"Y":{"x_min":-63.890625,"x_max":825,"ha":806,"o":"m 825 983 l 587 983 l 379 572 l 170 983 l -63 983 l 277 376 l 277 0 l 481 0 l 481 376 l 825 983 "},"E":{"x_min":55.5625,"x_max":722.21875,"ha":794,"o":"m 722 984 l 55 984 l 55 0 l 722 0 l 722 198 l 261 198 l 261 393 l 684 393 l 684 591 l 261 591 l 261 784 l 722 784 l 722 984 "},"y":{"x_min":35.984375,"x_max":608.203125,"ha":701,"o":"m 413 719 l 413 163 b 222 226 351 129 231 143 l 222 719 l 35 719 l 35 223 b 416 9 35 25 244 -48 b 158 -55 416 -125 233 -126 l 62 -154 b 608 26 223 -341 608 -280 l 608 719 l 413 719 "},"\"":{"x_min":36.109375,"x_max":480.5625,"ha":529,"o":"m 36 605 l 205 605 l 233 981 l 36 981 l 36 605 m 283 605 l 454 605 l 480 981 l 283 981 l 283 605 "},"g":{"x_min":26.03125,"x_max":598.25,"ha":696,"o":"m 52 -154 b 598 26 213 -341 598 -280 l 598 675 b 26 494 403 772 26 783 l 26 223 b 406 9 26 24 234 -48 b 148 -52 406 -125 223 -123 l 52 -154 m 403 163 b 212 226 341 128 221 142 l 212 498 b 403 575 214 585 337 608 l 403 163 "},"ƒ":{"x_min":-25.0625,"x_max":626.171875,"ha":704,"o":"m -25 -128 b 324 28 124 -217 295 -141 l 404 458 l 542 458 l 542 617 l 431 617 l 455 747 b 559 807 466 805 505 834 l 626 943 b 487 986 569 973 522 986 b 258 762 334 986 276 869 l 258 764 l 231 617 l 88 617 l 88 458 l 202 458 b 127 68 179 333 151 192 b 19 1 116 0 70 -20 l -25 -128 "},"e":{"x_min":25,"x_max":598.609375,"ha":686,"o":"m 416 419 l 219 419 l 219 483 b 416 484 216 584 416 584 l 416 419 m 440 211 b 219 241 391 130 219 141 l 219 276 l 598 276 l 598 476 b 315 730 598 650 455 730 b 25 476 170 730 25 650 l 25 241 b 315 -13 25 70 170 -13 b 566 122 400 -13 511 19 l 440 211 "},"J":{"x_min":-9.71875,"x_max":731.953125,"ha":847,"o":"m 526 790 l 526 308 b 362 186 526 227 443 186 b 187 351 286 186 206 241 l -9 312 b 358 -13 18 90 194 -13 b 731 308 543 -13 731 94 l 731 983 l 294 983 l 294 790 l 526 790 "},"|":{"x_min":48.609375,"x_max":241.671875,"ha":340,"o":"m 48 988 l 48 -202 l 241 -202 l 241 988 l 48 988 "},"^":{"x_min":-6.9375,"x_max":769.453125,"ha":824,"o":"m -6 549 l 216 549 l 375 749 l 537 549 l 769 549 l 436 964 l 318 964 l -6 549 "},"q":{"x_min":27.75,"x_max":606.9375,"ha":704,"o":"m 606 -263 l 606 681 b 326 735 519 714 416 735 b 27 486 175 735 41 672 l 27 238 b 412 18 25 38 255 -53 l 412 -263 l 606 -263 m 412 158 b 220 228 350 124 230 145 l 220 504 b 412 576 223 590 345 610 l 412 158 "},"b":{"x_min":37.5,"x_max":616.703125,"ha":701,"o":"m 37 982 l 37 38 b 318 -16 125 4 227 -16 b 616 232 469 -16 602 46 l 616 481 b 231 700 619 680 388 772 l 231 982 l 37 982 m 231 553 b 423 490 294 587 413 574 l 423 214 b 231 142 420 128 298 108 l 231 553 "},"D":{"x_min":58.328125,"x_max":794.453125,"ha":876,"o":"m 419 0 b 794 313 613 0 794 93 l 794 663 b 419 983 794 886 613 983 l 58 983 l 58 0 l 419 0 m 262 205 l 262 777 l 419 777 b 588 663 508 777 588 744 l 588 313 b 419 205 588 234 508 205 l 262 205 "},"z":{"x_min":-15.21875,"x_max":548.578125,"ha":596,"o":"m 283 554 l -15 69 l 40 0 l 538 0 l 538 165 l 248 165 l 548 651 l 493 719 l 11 719 l 11 554 l 283 554 "},"w":{"x_min":-31.9375,"x_max":922.21875,"ha":929,"o":"m 450 455 l 469 259 l 529 0 l 705 0 l 922 719 l 729 719 l 655 416 l 629 241 l 620 241 l 605 418 l 516 719 l 376 719 l 284 416 l 269 241 l 261 241 l 236 415 l 158 719 l -31 719 l 191 0 l 366 0 l 423 259 l 440 455 l 450 455 "},"$":{"x_min":17.78125,"x_max":733.40625,"ha":785,"o":"m 313 -97 l 445 -97 l 445 -5 b 733 271 591 21 719 115 b 445 589 741 484 601 554 l 445 796 b 549 712 485 782 520 755 l 717 825 b 445 994 648 929 551 980 l 445 1078 l 313 1078 l 313 993 b 27 715 165 969 37 875 b 313 407 24 509 167 434 l 313 193 b 171 291 256 208 203 240 l 17 173 b 313 -10 91 64 201 1 l 313 -97 m 527 284 b 445 191 524 236 491 205 l 445 380 b 527 284 495 364 530 337 m 235 707 l 235 708 b 313 794 238 753 269 780 l 313 618 b 235 707 269 633 235 657 "},"\\":{"x_min":-84.71875,"x_max":523.609375,"ha":522,"o":"m 100 1058 l -84 993 l 338 -79 l 523 -16 l 100 1058 "},"~":{"x_min":15.40625,"x_max":597.34375,"ha":647,"o":"m 487 514 b 359 479 443 456 408 443 b 209 543 323 507 273 543 b 15 409 126 543 64 480 l 136 307 b 262 331 184 370 220 367 b 394 276 297 301 343 276 b 597 423 486 276 551 342 l 487 514 "},"-":{"x_min":23.609375,"x_max":433.328125,"ha":489,"o":"m 23 308 l 433 308 l 433 504 l 23 504 l 23 308 "},"Q":{"x_min":40.625,"x_max":862.84375,"ha":939,"o":"m 743 -43 l 862 72 l 797 141 b 846 307 828 187 846 241 l 846 676 b 40 676 846 1112 40 1115 l 40 307 b 672 32 40 0 436 -90 l 743 -43 m 243 676 b 642 676 243 841 643 845 l 642 308 l 575 379 l 447 275 l 522 193 b 243 307 404 163 242 201 l 243 676 "},"M":{"x_min":61.265625,"x_max":969.59375,"ha":1088,"o":"m 790 581 l 765 391 l 765 0 l 969 0 l 969 983 l 755 983 l 514 418 l 275 983 l 61 983 l 61 0 l 265 0 l 265 390 l 243 580 l 257 580 l 304 445 l 440 129 l 593 129 l 727 444 l 775 581 l 790 581 "},"C":{"x_min":19.4375,"x_max":755.5625,"ha":811,"o":"m 579 294 b 222 316 495 133 222 165 l 222 667 b 583 693 222 819 498 854 l 747 782 b 405 993 680 926 536 993 b 19 667 211 993 19 882 l 19 316 b 401 -9 19 100 211 -9 b 755 196 531 -9 670 58 l 579 294 "},"[":{"x_min":37.5,"x_max":338.890625,"ha":372,"o":"m 338 990 l 37 990 l 37 -151 l 338 -151 l 338 36 l 234 36 l 234 801 l 338 801 l 338 990 "},"L":{"x_min":55.5625,"x_max":684.71875,"ha":721,"o":"m 684 205 l 259 205 l 259 983 l 55 983 l 55 0 l 684 0 l 684 205 "},"!":{"x_min":56.9375,"x_max":295.828125,"ha":403,"o":"m 273 986 l 77 986 l 77 265 l 273 265 l 273 986 m 56 104 b 175 -15 56 37 108 -15 b 295 104 243 -15 295 37 b 175 225 295 170 243 225 b 56 104 108 225 56 170 "}," ":{"x_min":0,"x_max":0,"ha":328},"{":{"x_min":16.328125,"x_max":382.890625,"ha":404,"o":"m 382 991 l 289 991 b 96 788 142 991 96 912 l 96 622 b 16 512 96 566 78 512 l 16 327 b 96 218 78 327 96 275 l 96 51 b 277 -150 96 -72 134 -150 l 382 -150 l 382 33 l 288 33 b 294 54 291 34 294 41 l 294 241 b 196 419 294 318 271 388 b 294 598 253 445 294 526 l 294 781 b 294 806 294 797 294 806 l 382 806 l 382 991 "},"X":{"x_min":-48.65625,"x_max":831.90625,"ha":826,"o":"m 831 983 l 583 983 l 384 633 l 202 983 l -45 983 l 241 490 l -48 0 l 202 0 l 384 347 l 581 0 l 831 0 b 520 488 765 100 583 391 l 831 983 "},"P":{"x_min":59.71875,"x_max":798.4375,"ha":856,"o":"m 262 304 l 448 304 b 447 983 912 304 918 981 l 59 983 l 59 0 l 262 0 l 262 304 m 447 495 l 262 495 l 262 777 l 447 777 b 447 495 648 777 645 495 "},"%":{"x_min":18.0625,"x_max":962.46875,"ha":1038,"o":"m 430 745 b 223 995 430 905 355 995 b 18 748 104 995 18 900 b 223 495 18 583 93 495 b 430 745 341 495 430 590 m 888 934 l 736 1034 l 56 -9 l 208 -104 l 888 934 m 286 745 b 220 641 286 675 262 641 b 154 747 181 641 154 670 b 220 851 154 819 181 851 b 286 745 261 851 286 819 m 962 244 b 755 494 962 404 887 494 b 549 247 636 494 549 398 b 755 -5 549 81 624 -5 b 962 244 873 -5 962 88 m 818 244 b 752 140 818 173 794 140 b 686 245 713 140 686 169 b 752 350 686 318 713 350 b 818 244 793 350 818 318 "},"#":{"x_min":8.796875,"x_max":950.6875,"ha":988,"o":"m 724 506 l 897 506 l 950 694 l 782 694 l 856 936 l 661 936 l 590 694 l 490 694 l 561 936 l 370 936 b 299 694 349 863 322 769 l 94 694 l 54 506 l 243 506 b 222 440 233 472 231 462 l 44 440 l 8 255 l 168 255 l 93 0 l 285 0 l 358 255 l 458 255 l 386 0 l 577 0 b 650 255 588 40 610 118 l 857 255 l 896 440 l 706 440 l 724 506 m 553 519 l 528 427 l 395 427 l 418 519 l 553 519 "},"_":{"x_min":-16.671875,"x_max":681.953125,"ha":756,"o":"m -16 -181 l 681 -181 l 681 11 l -16 11 l -16 -181 "},"+":{"x_min":36.109375,"x_max":747.21875,"ha":838,"o":"m 36 355 l 300 355 l 300 97 l 494 97 l 494 355 l 747 355 l 747 551 l 494 551 l 494 806 l 300 806 l 300 551 l 36 551 l 36 355 "},")":{"x_min":-48.609375,"x_max":310.234375,"ha":393,"o":"m -48 1006 b -45 -65 191 701 190 274 l 98 -164 b 91 1101 381 234 381 774 l -48 1006 "},"'":{"x_min":33.328125,"x_max":227.78125,"ha":299,"o":"m 33 605 l 208 605 l 227 981 l 33 981 l 33 605 "},"}":{"x_min":-9.3125,"x_max":344.859375,"ha":393,"o":"m -9 806 l 62 806 b 67 781 67 806 67 797 l 67 598 b 167 420 65 526 111 455 b 67 241 94 390 65 315 l 67 54 b 60 33 67 40 65 33 l -9 33 l -9 -150 l 61 -150 b 262 51 226 -150 262 -72 l 262 218 b 344 327 262 275 279 327 l 344 512 b 262 622 279 512 262 566 l 262 788 b 64 991 262 912 243 991 l -9 991 l -9 806 "},"a":{"x_min":24.75,"x_max":593.09375,"ha":701,"o":"m 288 466 b 322 -16 -66 466 -70 -16 b 593 35 409 -16 508 3 l 593 481 b 50 605 593 757 198 811 l 144 518 b 405 444 220 603 405 612 b 288 466 370 462 326 466 m 400 141 b 319 131 373 134 347 131 b 312 317 172 131 162 313 b 400 305 345 319 379 313 l 400 141 "},"T":{"x_min":-11.109375,"x_max":758.328125,"ha":783,"o":"m -11 984 l -11 779 l 270 779 l 270 0 l 476 0 l 476 779 l 758 779 l 758 984 l -11 984 "},"=":{"x_min":47.21875,"x_max":640.28125,"ha":738,"o":"m 47 437 l 640 437 l 640 627 l 47 627 l 47 437 m 47 183 l 640 183 l 640 372 l 47 372 l 47 183 "},"N":{"x_min":59.71875,"x_max":830.5625,"ha":947,"o":"m 641 269 l 572 447 l 261 983 l 59 983 l 59 0 l 265 0 l 265 479 l 238 647 l 252 650 l 312 516 l 612 0 l 830 0 l 830 983 l 626 983 l 626 480 b 655 272 627 459 644 336 l 641 269 "},"2":{"x_min":-13.671875,"x_max":675.9375,"ha":749,"o":"m 161 688 b 464 759 234 819 397 850 b 414 575 500 712 471 634 l -13 106 l 37 1 l 673 1 l 673 196 l 439 195 b 298 180 429 194 298 180 l 296 188 l 553 433 b 347 997 772 656 694 983 b 5 794 212 1001 83 926 l 161 688 "},"j":{"x_min":-55.5625,"x_max":252.78125,"ha":332,"o":"m 20 883 b 136 767 20 819 72 767 b 252 883 201 767 252 819 b 136 999 252 949 201 999 b 20 883 72 999 20 949 m -55 -105 b 41 -12 31 -114 41 -52 l 41 720 l 234 720 l 234 -12 b -55 -254 234 -169 147 -294 l -55 -105 "},"Z":{"x_min":-21.03125,"x_max":755.296875,"ha":776,"o":"m 469 794 l -21 93 l 27 0 l 735 0 l 735 183 l 265 183 l 755 890 l 698 983 l 5 983 l 5 794 l 469 794 "},"u":{"x_min":38.890625,"x_max":613.890625,"ha":710,"o":"m 613 720 l 422 720 l 422 154 b 231 251 334 124 236 164 l 231 720 l 38 720 l 38 253 b 613 42 38 -71 404 -34 l 613 720 "},"1":{"x_min":-56.9375,"x_max":355.5625,"ha":451,"o":"m 194 986 l -56 720 l 70 612 l 163 693 l 163 0 l 355 0 l 355 986 l 194 986 "},"k":{"x_min":47.21875,"x_max":675,"ha":664,"o":"m 47 981 l 47 0 l 240 0 l 240 251 l 252 262 l 451 0 l 675 0 b 387 372 587 116 477 252 l 673 719 l 448 719 l 240 447 l 240 981 l 47 981 "},"€":{"x_min":-26.390625,"x_max":798.609375,"ha":824,"o":"m 1 647 l -26 509 l 62 509 l 62 456 l 1 456 l -26 320 l 62 320 l 62 317 b 444 -9 62 100 254 -9 b 798 196 575 -9 713 58 l 622 295 b 265 317 538 133 265 165 l 265 320 l 502 320 l 529 456 l 265 456 l 265 509 l 501 509 l 529 647 l 265 647 l 265 667 b 626 693 265 819 541 854 l 790 782 b 448 993 723 926 579 993 b 62 667 254 993 62 882 l 62 647 l 1 647 "},"<":{"x_min":40.28125,"x_max":531.9375,"ha":608,"o":"m 531 788 l 40 473 l 40 345 l 531 34 l 531 259 l 258 409 l 531 565 l 531 788 "},"t":{"x_min":37.484375,"x_max":377.78125,"ha":424,"o":"m 377 150 b 229 254 284 132 229 172 l 229 526 l 356 526 l 356 720 l 229 720 l 229 983 l 37 983 l 37 253 b 377 10 36 29 186 -53 l 377 150 "},"W":{"x_min":-40.015625,"x_max":1229.4375,"ha":1283,"o":"m 559 377 b 586 497 561 376 586 497 l 597 497 l 619 379 l 746 0 l 946 0 l 1229 983 l 1019 983 l 876 468 l 850 230 l 837 230 l 797 468 l 678 847 l 512 847 b 387 470 457 670 441 650 l 354 240 l 341 240 l 311 469 l 171 983 l -40 983 l 244 0 l 444 0 l 559 377 "},"v":{"x_min":-51.390625,"x_max":643.0625,"ha":649,"o":"m 288 170 l 259 356 l 154 719 l -51 719 l 204 0 l 386 0 l 643 719 l 436 719 l 329 356 l 302 170 l 288 170 "},">":{"x_min":47.21875,"x_max":538.890625,"ha":615,"o":"m 47 565 l 320 409 l 47 259 l 47 34 l 538 345 l 538 473 l 47 788 l 47 565 "},"s":{"x_min":-7.84375,"x_max":509.875,"ha":551,"o":"m -7 108 b 250 -13 60 18 150 -13 b 509 222 384 -13 509 65 b 302 433 509 358 394 410 b 207 507 272 439 202 464 b 388 521 215 601 345 562 l 484 653 b 255 728 411 712 320 729 b 245 276 -45 724 -94 335 b 315 185 311 267 333 226 b 83 233 290 126 168 153 l -7 108 "},"B":{"x_min":59.734375,"x_max":799.53125,"ha":861,"o":"m 263 598 l 263 784 l 448 784 b 448 598 604 784 587 598 l 263 598 m 448 423 b 448 198 643 423 640 198 l 263 198 l 263 423 l 448 423 m 757 695 b 448 984 757 886 618 984 l 59 984 l 59 0 l 455 0 b 795 250 682 0 777 118 b 664 523 809 348 786 463 b 757 695 730 561 757 640 "},"?":{"x_min":-11.109375,"x_max":587.90625,"ha":656,"o":"m 113 717 b 231 787 145 762 188 783 b 236 522 437 805 430 522 b 150 531 222 522 188 522 l 162 244 l 330 244 l 344 401 b 266 970 712 455 644 970 b -11 823 170 970 69 928 l 113 717 m 143 95 b 252 -14 143 34 191 -14 b 362 95 313 -14 362 34 b 252 205 362 159 313 205 b 143 95 191 205 143 159 "},"H":{"x_min":70.828125,"x_max":841.671875,"ha":953,"o":"m 637 0 l 841 0 l 841 983 l 637 983 l 637 593 l 275 593 l 275 983 l 70 983 l 70 0 l 275 0 l 275 388 l 637 388 l 637 0 "},"c":{"x_min":19.4375,"x_max":588.890625,"ha":628,"o":"m 419 243 b 212 247 379 126 212 149 l 212 473 b 415 482 212 569 383 589 l 580 533 b 308 728 543 680 411 728 b 19 472 165 728 19 643 l 19 246 b 308 -7 19 75 165 -7 b 588 188 411 -7 538 42 l 419 243 "},"&":{"x_min":19,"x_max":900.828125,"ha":871,"o":"m 489 516 b 634 751 568 564 634 631 b 380 991 634 895 511 991 b 105 737 238 991 105 899 b 171 558 105 670 135 609 b 19 299 91 502 19 427 b 337 -5 19 112 159 -5 b 593 105 450 -5 524 31 l 663 20 l 900 20 l 707 256 l 806 371 l 682 491 l 598 389 l 489 516 m 455 239 b 212 299 363 133 212 180 b 300 414 212 348 255 384 l 455 239 m 374 816 b 443 748 414 816 443 788 b 350 633 443 702 399 658 b 298 741 321 667 298 709 b 374 816 298 784 331 816 "},"I":{"x_min":43.0625,"x_max":247.21875,"ha":364,"o":"m 43 0 l 247 0 l 247 983 l 43 983 l 43 0 "},"G":{"x_min":28.25,"x_max":797.703125,"ha":910,"o":"m 757 789 b 411 997 682 943 544 997 b 28 674 219 997 28 889 l 28 317 b 797 317 28 -123 797 -120 l 797 561 l 374 561 l 374 363 l 597 363 l 597 317 b 231 317 597 143 231 142 l 231 674 b 592 701 231 836 522 864 l 757 789 "},"(":{"x_min":32.796875,"x_max":391.671875,"ha":417,"o":"m 251 1101 b 244 -164 -38 774 -38 234 l 388 -65 b 391 1006 152 274 151 701 l 251 1101 "},"`":{"x_min":-91.671875,"x_max":323.609375,"ha":357,"o":"m 166 979 l -91 979 l 109 727 l 323 727 l 166 979 "},"U":{"x_min":61.109375,"x_max":833.328125,"ha":943,"o":"m 61 983 l 61 322 b 833 322 61 -127 831 -126 l 833 983 l 627 983 l 627 322 b 266 322 627 138 266 137 l 266 983 l 61 983 "},"◊":{"x_min":-13.984375,"x_max":694.53125,"ha":738,"o":"m 694 470 l 412 975 l 272 975 l -13 468 l 263 -36 l 408 -36 l 694 470 m 482 469 l 340 204 b 195 472 284 306 249 375 b 338 745 245 568 290 651 l 482 469 "},"F":{"x_min":55.5625,"x_max":720.828125,"ha":765,"o":"m 720 983 l 55 983 l 55 0 l 261 0 l 261 366 l 663 366 l 663 568 l 261 568 l 261 784 l 720 784 l 720 983 "},"r":{"x_min":34.71875,"x_max":418.0625,"ha":457,"o":"m 172 698 b 34 474 94 658 34 578 l 34 0 l 227 0 l 227 471 b 418 560 236 553 336 582 l 418 717 b 316 730 375 727 344 730 b 248 723 295 730 265 728 l 247 723 b 172 698 220 717 193 707 "},":":{"x_min":29.171875,"x_max":268.0625,"ha":338,"o":"m 29 561 b 148 440 29 494 81 440 b 268 561 215 440 268 494 b 148 679 268 627 215 679 b 29 561 81 679 29 627 m 29 129 b 148 9 29 62 81 9 b 268 129 215 9 268 62 b 148 248 268 198 215 248 b 29 129 81 248 29 198 "},"x":{"x_min":-45.296875,"x_max":657.515625,"ha":657,"o":"m 428 719 b 332 555 383 645 351 586 l 307 487 l 299 487 l 272 555 l 172 719 l -45 719 b 188 359 117 481 147 420 l -45 0 l 172 0 b 265 147 217 68 242 109 l 297 223 l 307 223 l 335 150 l 428 0 l 657 0 b 415 361 589 95 488 258 l 654 719 l 428 719 "},"*":{"x_min":-1.234375,"x_max":566.515625,"ha":610,"o":"m 373 984 l 193 984 l 207 820 l 48 886 l -1 711 l 155 676 l 47 547 l 195 440 l 281 590 l 373 440 l 516 548 l 405 677 l 566 708 l 515 883 l 356 822 l 373 984 "},"V":{"x_min":-56.9375,"x_max":851.390625,"ha":851,"o":"m 387 236 l 347 438 l 161 984 l -56 984 l 298 1 l 495 1 l 851 984 l 633 984 l 440 438 l 402 236 l 387 236 "},"h":{"x_min":45.828125,"x_max":620.828125,"ha":733,"o":"m 45 983 l 45 0 l 238 0 l 238 526 b 429 463 298 561 429 554 l 429 0 l 620 0 l 620 462 b 238 698 620 681 406 765 l 238 983 l 45 983 "},"0":{"x_min":41.671875,"x_max":752.78125,"ha":853,"o":"m 237 286 l 237 695 b 556 695 248 841 545 841 l 556 286 b 237 286 545 143 248 143 m 397 -11 b 752 286 565 -11 752 80 l 752 695 b 397 994 752 902 565 994 b 41 695 230 994 41 902 l 41 286 b 397 -11 41 80 230 -11 "},".":{"x_min":62.5,"x_max":300,"ha":379,"o":"m 62 112 b 180 -8 62 44 113 -8 b 300 112 247 -8 300 44 b 180 231 300 179 247 231 b 62 112 113 231 62 179 "},"@":{"x_min":17.84375,"x_max":1004.359375,"ha":1064,"o":"m 721 315 l 795 719 l 686 745 l 656 710 b 319 238 376 957 89 447 b 578 208 386 177 500 151 b 868 243 665 140 801 183 b 961 759 1004 363 1043 599 b 676 976 907 863 806 944 b 19 477 289 1077 37 773 b 624 12 -4 111 311 -86 l 592 143 b 650 841 -20 -34 77 990 b 837 683 739 817 807 762 b 721 315 891 545 855 388 m 624 560 l 581 355 b 428 349 547 315 468 303 b 428 565 384 402 388 505 b 624 560 477 637 570 656 "},"f":{"x_min":30.5625,"x_max":359.71875,"ha":393,"o":"m 359 986 b 30 731 176 998 30 904 l 30 0 l 223 0 l 223 423 l 351 423 l 351 618 l 223 618 l 223 731 b 359 797 223 772 273 797 l 359 986 "},";":{"x_min":-13.890625,"x_max":276.390625,"ha":349,"o":"m -13 -131 l 159 -131 l 276 190 l 63 190 l -13 -131 m 34 544 b 155 423 34 476 84 423 b 272 544 223 423 272 476 b 155 662 272 611 223 662 b 34 544 84 662 34 611 "},"i":{"x_min":30.5625,"x_max":261.109375,"ha":351,"o":"m 30 895 b 144 779 30 830 80 779 b 261 895 213 779 261 830 b 144 1011 261 961 213 1011 b 30 895 80 1011 30 961 m 244 720 l 244 0 l 51 0 l 51 720 l 244 720 "},"6":{"x_min":33.328125,"x_max":755.5625,"ha":847,"o":"m 734 791 b 397 991 654 935 530 991 b 33 692 213 992 33 892 l 33 289 b 397 -8 36 89 213 -10 b 755 289 580 -8 755 91 l 755 342 b 230 555 755 606 397 721 l 230 691 b 562 717 230 820 491 866 l 734 791 m 559 291 b 230 291 559 149 230 151 l 230 341 b 559 341 230 481 559 483 l 559 291 "},"A":{"x_min":-19.0625,"x_max":873.953125,"ha":886,"o":"m -19 0 l 198 0 b 280 225 230 87 250 141 l 573 225 l 660 0 l 873 0 l 521 983 l 325 983 l -19 0 m 430 766 l 458 626 l 521 412 l 332 412 l 387 625 l 415 766 l 430 766 "},"n":{"x_min":47.21875,"x_max":620.828125,"ha":718,"o":"m 47 0 l 240 0 l 240 555 b 429 479 309 594 429 578 l 429 0 l 620 0 l 620 480 b 306 743 620 669 469 743 b 47 680 219 743 126 719 l 47 0 "},"O":{"x_min":37.5,"x_max":843.0625,"ha":947,"o":"m 37 676 l 37 306 b 843 306 37 -130 843 -129 l 843 676 b 37 676 843 1112 37 1115 m 240 676 b 638 676 240 841 640 845 l 638 306 b 240 306 638 143 238 141 l 240 676 "},"3":{"x_min":-5.640625,"x_max":711.359375,"ha":782,"o":"m 151 712 b 342 794 209 784 287 794 b 466 698 406 794 466 758 b 363 598 466 640 420 598 l 226 598 l 226 425 l 363 425 b 340 188 561 413 558 188 b 145 306 270 188 191 230 l -5 195 b 336 -12 79 37 206 0 b 573 526 663 -44 858 327 b 645 809 680 612 687 723 b 30 819 523 1065 166 1031 l 151 712 "},"]":{"x_min":-33.328125,"x_max":266.671875,"ha":367,"o":"m -33 -150 l 266 -150 l 266 991 l -33 991 l -33 806 l 68 806 l 68 33 l -33 33 l -33 -150 "},"m":{"x_min":48.609375,"x_max":952.78125,"ha":1053,"o":"m 48 0 l 237 0 l 237 537 b 405 497 283 587 405 565 l 405 0 l 590 0 l 590 494 b 761 493 590 576 761 579 l 761 0 l 952 0 l 952 489 b 684 735 952 653 816 735 b 498 644 616 735 544 707 b 305 743 459 718 379 742 b 48 654 211 744 111 708 l 48 0 "},"9":{"x_min":27.6875,"x_max":749.90625,"ha":840,"o":"m 48 191 b 386 -8 129 47 252 -8 b 749 290 569 -9 749 90 l 749 693 b 386 991 747 893 569 993 b 27 693 202 991 27 891 l 27 640 b 552 427 27 376 381 263 l 552 291 b 220 265 552 162 291 116 l 48 191 m 223 691 b 552 691 223 833 552 832 l 552 641 b 223 641 552 501 223 500 l 223 691 "},"l":{"x_min":36.109375,"x_max":344.4375,"ha":375,"o":"m 344 168 b 229 266 265 168 229 212 l 229 983 l 36 983 l 36 266 b 344 2 36 109 133 -29 l 344 168 "},"8":{"x_min":14.3125,"x_max":747.125,"ha":818,"o":"m 369 176 b 208 300 296 176 208 219 b 369 429 208 394 284 429 l 390 429 b 551 300 475 429 551 394 b 390 176 551 219 463 176 l 369 176 m 390 -8 b 747 309 588 -8 742 105 b 617 527 747 391 713 480 b 708 687 680 565 708 636 b 390 962 708 881 551 962 l 369 962 b 75 805 246 962 128 909 b 139 523 36 729 36 588 b 14 309 46 462 14 376 b 369 -8 17 105 169 -8 l 390 -8 m 391 800 b 520 697 457 800 520 762 b 373 594 520 623 440 594 b 239 697 309 594 239 623 b 369 800 239 762 303 800 l 391 800 "},"p":{"x_min":31.9375,"x_max":611.140625,"ha":707,"o":"m 226 -263 l 226 18 b 611 238 383 -53 613 38 l 611 486 b 312 735 597 672 463 735 b 31 681 222 735 119 714 l 31 -263 l 226 -263 m 226 576 b 418 504 293 610 415 590 l 418 228 b 226 158 408 145 288 124 l 226 576 "},"4":{"x_min":-8.375,"x_max":708.46875,"ha":767,"o":"m 641 983 l 466 983 l -8 356 l 84 219 l 445 219 l 445 1 l 641 1 l 641 219 l 708 219 l 708 398 l 641 398 l 641 983 m 476 729 b 454 591 472 702 454 591 l 450 384 l 229 384 l 425 654 l 468 730 l 476 729 "},"R":{"x_min":60.046875,"x_max":868.390625,"ha":867,"o":"m 575 373 b 798 669 717 401 798 488 b 447 983 793 893 644 983 l 60 983 l 60 0 l 265 0 l 265 359 l 337 359 l 617 0 l 868 0 l 575 373 m 265 545 l 265 777 l 447 777 b 594 668 533 780 594 751 b 447 545 594 581 537 545 l 265 545 "},"o":{"x_min":29.171875,"x_max":605.5625,"ha":694,"o":"m 318 548 b 412 477 362 548 412 523 l 412 240 b 318 162 412 194 362 162 b 222 240 272 162 222 194 l 222 477 b 318 548 222 523 272 548 m 29 477 l 29 244 b 318 -11 29 70 173 -9 b 605 244 461 -9 605 70 l 605 477 b 318 734 605 648 461 733 b 29 477 173 733 29 648 "},"5":{"x_min":37.5,"x_max":727.984375,"ha":817,"o":"m 37 191 b 356 -8 109 47 236 -2 b 554 643 751 -26 854 495 b 234 655 472 683 348 702 l 234 790 l 659 790 l 659 983 l 45 983 l 45 431 l 159 434 b 365 498 252 486 293 500 b 359 188 580 495 577 188 b 187 291 300 188 230 223 l 37 191 "}}}
